<svg width="17763" height="2041" viewBox="0 0 17763 2041" fill="none" xmlns="http://www.w3.org/2000/svg">
<path d="M2667 1245H3161L2913 748L2667 1245ZM2305 1678L2855 556H2971L3527 1678H3375L3223 1376H2603L2454 1678H2305ZM4593 1320L4705 1404C4654 1501 4583 1576 4493 1629C4404 1681 4302 1708 4188 1708C4020 1708 3882 1652 3772 1541C3663 1431 3608 1290 3608 1120C3608 949 3663 808 3772 697C3882 587 4021 531 4188 531C4292 531 4386 554 4472 599C4557 645 4627 710 4680 793L4563 877C4528 810 4477 757 4411 719C4344 681 4270 662 4188 662C4062 662 3958 706 3875 792C3793 879 3751 988 3751 1120C3751 1252 3793 1361 3875 1447C3958 1533 4062 1576 4188 1576C4276 1576 4355 1554 4423 1511C4491 1468 4548 1404 4593 1320ZM4955 1678V556H5028L5756 1395V556H5896V1678H5825L5094 840V1678H4955ZM6722 1576C6848 1576 6953 1533 7036 1447C7118 1361 7160 1252 7160 1120C7160 987 7118 877 7036 791C6954 705 6849 662 6722 662C6596 662 6492 706 6409 792C6326 879 6285 988 6285 1120C6285 1252 6326 1361 6409 1447C6492 1533 6596 1576 6722 1576ZM6722 1708C6554 1708 6415 1652 6305 1541C6196 1431 6141 1290 6141 1120C6141 949 6196 808 6306 697C6416 587 6554 531 6722 531C6890 531 7029 587 7140 698C7250 809 7305 950 7305 1120C7305 1290 7250 1431 7140 1541C7030 1652 6891 1708 6722 1708ZM8032 685H7690V1549H8032C8170 1549 8279 1510 8358 1433C8438 1355 8477 1251 8477 1118C8477 988 8437 883 8356 804C8276 725 8167 685 8032 685ZM8032 556C8209 556 8351 608 8459 713C8567 817 8621 953 8621 1120C8621 1289 8568 1424 8462 1526C8355 1628 8212 1678 8032 1678H7551V556H8032ZM8866 1678V556H9749V685H9006V1014H9455V1143H9006V1549H9795V1678H8866Z" fill="#C5C6C6"/>
<path d="M11556 1374V1210H11250V1081H11695V1418C11641 1511 11571 1583 11483 1633C11396 1683 11297 1708 11187 1708C11019 1708 10880 1652 10771 1541C10661 1431 10606 1290 10606 1120C10606 949 10661 808 10771 697C10881 587 11019 531 11187 531C11290 531 11385 554 11471 599C11556 645 11625 710 11679 793L11562 877C11527 810 11476 757 11409 719C11343 681 11269 662 11187 662C11061 662 10957 706 10874 792C10791 879 10750 988 10750 1120C10750 1252 10791 1361 10874 1447C10957 1533 11061 1576 11187 1576C11266 1576 11336 1559 11397 1526C11458 1492 11511 1441 11556 1374ZM11983 1678V556H12123V1549H12856V1678H11983ZM13479 1576C13605 1576 13710 1533 13792 1447C13875 1361 13916 1252 13916 1120C13916 987 13875 877 13793 791C13711 705 13606 662 13479 662C13353 662 13249 706 13166 792C13083 879 13042 988 13042 1120C13042 1252 13083 1361 13166 1447C13249 1533 13353 1576 13479 1576ZM13479 1708C13310 1708 13172 1652 13062 1541C12953 1431 12898 1290 12898 1120C12898 949 12953 808 13063 697C13173 587 13311 531 13479 531C13647 531 13786 587 13897 698C14007 809 14062 950 14062 1120C14062 1290 14007 1431 13897 1541C13787 1652 13647 1708 13479 1708ZM14447 1000H14983C15042 1000 15088 986 15118 959C15150 933 15165 894 15165 844C15165 791 15150 751 15120 725C15090 698 15045 685 14983 685H14447V1000ZM14447 1549H15034C15098 1549 15148 1531 15185 1493C15222 1455 15240 1404 15240 1339C15240 1275 15222 1223 15185 1186C15148 1148 15098 1129 15034 1129H14447V1549ZM14307 1678V556H14971C15082 556 15165 580 15222 627C15278 674 15307 744 15307 836C15307 881 15298 920 15281 956C15263 991 15238 1020 15205 1041C15265 1076 15310 1118 15340 1168C15371 1219 15386 1276 15386 1341C15386 1445 15352 1527 15284 1587C15216 1648 15123 1678 15007 1678H14307ZM15860 1245H16354L16106 748L15860 1245ZM15498 1678L16048 556H16164L16720 1678H16569L16416 1376H15796L15648 1678H15498ZM16891 1678V556H17030V1549H17763V1678H16891Z" fill="#C5C6C6"/>
<path d="M901 1790C1326.26 1790 1671 1445.26 1671 1020C1671 594.741 1326.26 250 901 250C475.741 250 131 594.741 131 1020C131 1445.26 475.741 1790 901 1790Z" fill="#515975"/>
<path fill-rule="evenodd" clip-rule="evenodd" d="M374 1449H520L558 1378H1111L1070 1251L618 1250L898 682L1269 1449H1409L896 397L374 1449Z" fill="#5EBED6"/>
<path fill-rule="evenodd" clip-rule="evenodd" d="M901 119C1399 119 1803 522 1803 1020C1803 1024 1803 1028 1803 1031H1727C1727 1028 1727 1024 1727 1020C1727 564 1357 194 901 194C897 194 894 194 890 194V119C894 119 897 119 901 119ZM906 1922C905 1922 903 1922 901 1922C403 1922 0 1518 0 1020C0 1017 0 1014 0 1011H75C75 1014 75 1017 75 1020C75 1476 445 1846 901 1846C903 1846 905 1846 906 1846V1922Z" fill="#C5C6C6"/>
<path fill-rule="evenodd" clip-rule="evenodd" d="M-119 1033H-48C-48 1029 -48 1025 -48 1020C-48 496 377 71 901 71C906 71 910 71 914 71V0C910 0 906 0 901 0C338 0 -119 457 -119 1020C-119 1025 -119 1029 -119 1033ZM1922 1010H1850C1850 1013 1850 1017 1850 1020C1850 1544 1425 1969 901 1969C899 1969 897 1969 895 1969V2041C897 2041 899 2041 901 2041C1465 2041 1922 1584 1922 1020C1922 1017 1922 1013 1922 1010Z" fill="#515975"/>
</svg>
